<?xml version="1.0" standalone="no"?>
<!DOCTYPE svg PUBLIC "-//W3C//DTD SVG 20010904//EN"
 "http://www.w3.org/TR/2001/REC-SVG-20010904/DTD/svg10.dtd">
<svg version="1.0" xmlns="http://www.w3.org/2000/svg"
 width="512.000000pt" height="512.000000pt" viewBox="0 0 512.000000 512.000000"
 preserveAspectRatio="xMidYMid meet">
<metadata>
Created by potrace 1.14, written by Peter Selinger 2001-2017
</metadata>
<g transform="translate(0.000000,512.000000) scale(0.100000,-0.100000)"
fill="#000000" stroke="none">
<path d="M3565 4802 c-114 -39 -230 -133 -436 -353 -328 -348 -869 -1004 -922
-1119 -16 -33 -22 -65 -22 -120 0 -108 23 -149 162 -284 63 -61 132 -133 153
-161 24 -32 81 -148 154 -317 64 -147 134 -306 156 -354 22 -48 40 -97 40
-110 0 -53 -100 -57 -192 -7 -95 52 -156 124 -236 279 -75 147 -99 178 -143
189 -39 10 -92 -41 -133 -129 -76 -157 -80 -229 -36 -599 60 -515 65 -699 21
-791 -16 -32 -34 -53 -57 -64 -31 -14 -37 -14 -69 1 -34 16 -68 67 -86 132 -5
16 -16 122 -24 235 -18 250 -41 452 -60 542 -18 85 -49 158 -69 158 -24 0 -41
-66 -125 -481 -33 -162 -69 -335 -81 -383 -16 -70 -20 -121 -20 -266 0 -99 4
-180 8 -180 4 0 100 33 212 74 443 159 665 261 844 390 190 136 491 240 1221
421 360 89 642 176 738 227 134 72 164 173 78 259 -79 79 -220 87 -501 29
-458 -96 -646 -128 -805 -137 -126 -7 -185 6 -185 42 0 63 235 172 870 405
834 305 899 332 998 424 61 56 85 107 80 167 -6 61 -42 110 -104 139 -41 20
-56 22 -133 17 -179 -12 -419 -88 -1054 -333 -585 -227 -718 -268 -734 -228
-16 41 122 143 739 542 889 577 961 632 1042 802 73 155 19 265 -137 277 -157
13 -259 -41 -1044 -545 -563 -362 -748 -471 -866 -508 -68 -21 -87 -11 -87 45
0 115 156 319 610 801 270 286 318 339 364 399 99 128 155 268 142 355 -18
115 -134 165 -271 118z"/>
<path d="M1190 4433 c-24 -23 -66 -116 -209 -473 -98 -245 -225 -553 -281
-685 -56 -132 -111 -267 -122 -300 -35 -109 -49 -241 -58 -565 -9 -322 -17
-405 -52 -545 -51 -206 -171 -372 -391 -544 -37 -29 -67 -55 -67 -59 0 -14
156 -236 237 -337 157 -197 424 -447 620 -582 l53 -36 23 20 c82 75 220 147
427 224 l155 58 2 148 2 148 -24 -64 c-60 -161 -194 -190 -225 -48 -11 49 -7
77 79 502 117 583 133 695 101 695 -22 0 -57 -66 -219 -415 -133 -286 -198
-401 -258 -456 -77 -71 -143 -45 -143 56 0 72 29 150 182 480 170 367 210 470
195 509 -19 49 -123 -66 -284 -312 -110 -168 -162 -228 -210 -241 -59 -17
-103 12 -103 67 0 48 66 184 192 392 205 340 270 472 294 600 25 131 57 212
239 610 36 78 64 156 75 210 10 47 30 135 46 195 24 95 28 129 29 255 0 158
-10 215 -56 318 -55 122 -131 202 -193 202 -14 0 -39 -12 -56 -27z"/>
</g>
</svg>
